<?xml version="1.0" encoding="utf-8"?>
<!-- Generator: Adobe Illustrator 17.1.0, SVG Export Plug-In . SVG Version: 6.00 Build 0)  -->
<!DOCTYPE svg PUBLIC "-//W3C//DTD SVG 1.1//EN" "http://www.w3.org/Graphics/SVG/1.1/DTD/svg11.dtd">
<svg version="1.1" id="Layer_1" xmlns="http://www.w3.org/2000/svg" xmlns:xlink="http://www.w3.org/1999/xlink" x="0px" y="0px"
	 viewBox="0 0 150 150" enable-background="new 0 0 150 150" xml:space="preserve">
<g>
	<g>
		<path d="M85.946,42.099c-9.496-0.112-22.9-2.558-29.814,6.075c-3.596,4.489-6.712,11.089-3.307,16.498
			c2.651,4.212,8.95,5.53,13.465,6.302c8.83,1.51,18.626-0.951,25.034-7.377c3.906-3.917,5.219-9.648,3.964-14.94
			c-1.299-5.479-7.633-8.243-11.586-11.475c-0.594-0.485-3.119,0.655-2.735,0.969c6.632,5.423,13.537,8.873,11.504,18.806
			C90.436,66.9,78.702,71.183,69.723,70.039c-8.298-1.057-17.421-4.742-14.932-14.686c1.716-6.858,7.219-11.569,14.228-12.361
			c4.962-0.561,10.061,0.183,15.035,0.242C84.633,43.241,87.35,42.115,85.946,42.099L85.946,42.099z"/>
	</g>
</g>
<g>
	<g>
		<path d="M71.881,71.168c-0.028,12.69-0.619,25.354-1.667,38c-0.103,1.245,2.819,0.698,2.905-0.337
			c1.048-12.646,1.639-25.31,1.667-38C74.788,69.557,71.883,70.155,71.881,71.168L71.881,71.168z"/>
	</g>
</g>
<g>
	<g>
		<path d="M69.906,110.26c-5.393,8.845-11.642,17.137-19.881,23.525c-0.601,0.466,2.08,0.18,2.618-0.238
			c8.335-6.462,14.663-14.86,20.119-23.808C72.956,109.42,70.339,109.55,69.906,110.26L69.906,110.26z"/>
	</g>
</g>
<g>
	<g>
		<path d="M69.988,109.568c10.746,7.861,22.657,13.426,35.193,17.802c0.882,0.308,3.509-0.986,2.305-1.406
			c-12.372-4.319-24.195-9.769-34.807-17.532C71.846,107.823,69.188,108.983,69.988,109.568L69.988,109.568z"/>
	</g>
</g>
<g>
	<g>
		<path d="M73.058,85.915c6.261,0.677,12.849,6.756,19.185,2.785c3.153-1.976,5.643-4.723,8.393-7.194
			c4.282-3.848,9.105-7.486,13.804-10.806c1.18-0.834-1.717-0.415-2.213-0.065c-5.769,4.076-11.592,8.524-16.687,13.422
			c-3.796,3.65-7.153,5.311-12.425,3.192c-2.722-1.094-5.237-2.179-8.173-2.496C74.336,84.686,71.616,85.759,73.058,85.915
			L73.058,85.915z"/>
	</g>
</g>
<g>
	<g>
		<path d="M72.725,84.584c6.037,0.1,11.86,0.868,16.902-2.94c6.737-5.087,10.335-12.959,14.801-19.902
			c0.2-0.312-2.401-0.191-2.857,0.516c-2.937,4.567-5.527,9.338-8.728,13.734c-1.655,2.273-3.586,4.215-5.837,5.881
			c-3.406,2.521-8.381,1.61-12.398,1.543C74.009,83.406,71.303,84.56,72.725,84.584L72.725,84.584z"/>
	</g>
</g>
<g>
	<g>
		<path d="M67.573,56.122c0.242-0.149,0.48-0.306,0.722-0.456c0.042-0.025,0.085-0.05,0.127-0.075
			c-0.219,0.137-0.468,0.195-0.746,0.173c-0.366,0.007-0.2-0.039-0.021,0.114c-0.003-0.207-0.006-0.414-0.01-0.62
			c-0.203,0.449-0.451,0.829-0.824,1.143c0.093-0.073,0.079-0.069-0.041,0.01c0.298-0.18,0.675-0.25,1.02-0.19
			c0.098,0.017,0.207,0.121,0.083-0.021c-0.046-0.053-0.079-0.188-0.099-0.254c-0.332-1.055-3.219-0.244-2.898,0.776
			c0.433,1.375,1.938,1.31,3.079,0.902c1.051-0.376,1.931-1.269,2.386-2.275c0.087-0.193,0.196-0.444-0.01-0.62
			c-0.625-0.536-1.331-0.748-2.153-0.622c-0.924,0.141-1.651,0.627-2.426,1.105c-0.404,0.249-0.864,0.86-0.243,1.172
			C66.138,56.694,67.016,56.465,67.573,56.122L67.573,56.122z"/>
	</g>
</g>
<g>
	<g>
		<path d="M79.449,56.278c-0.039-0.258-0.036-0.512,0.156-0.715c-0.892,0.203-1.783,0.406-2.675,0.609
			c0.493,0.417,1.067,0.413,1.682,0.3c0.497-0.091,1.624-0.316,1.845-0.893c0.269-0.705-1.803-0.129-1.941-0.08
			c-0.609,0.217-0.976,0.468-1.173,1.071c-0.156,0.477,0.966,0.282,1.151,0.248c0.524-0.096,1.388-0.281,1.703-0.772
			c0.238-0.371,0.636-0.584,0.817-1.006c0.049-0.093,0.029-0.168-0.06-0.224c-0.827-0.509-1.805-0.389-2.685-0.037
			c-0.425,0.17-0.822,0.349-1.109,0.715c-0.162,0.206-0.283,0.44-0.468,0.628c-0.45,0.458,0.398,0.464,0.675,0.438
			c0.601-0.056,1.496-0.229,1.942-0.683c0.206-0.21,0.383-0.439,0.545-0.684c-0.02,0.03,0.158-0.211,0.097-0.144
			c-1.314,1.425-2.773,0.097-1.73,0.739c-0.02-0.075-0.04-0.15-0.06-0.224c-0.173,0.403-0.58,0.637-0.817,1.006
			c0.951-0.175,1.903-0.349,2.854-0.524c0.035-0.108,0.072-0.213,0.116-0.317c0.082-0.195,0.185-0.154-0.198,0.099
			c-0.579,0.179-1.159,0.358-1.738,0.536c0.004,0,0.008-0.001,0.012-0.001c-0.244-0.025-0.489-0.049-0.733-0.074
			c-0.332-0.308,0.837-0.663,0.739-0.631c0.376-0.086,0.752-0.171,1.128-0.257c0.534-0.073,0.47,0.075,0.142-0.202
			c-0.238-0.201-0.832-0.071-1.091-0.024c-0.491,0.09-1.222,0.25-1.584,0.632c-0.35,0.37-0.515,0.732-0.437,1.247
			C76.634,57.603,79.556,56.985,79.449,56.278L79.449,56.278z"/>
	</g>
</g>
<g>
	<g>
		<path d="M76.836,58.333c1.883,0.463,3.968,0.08,4.887-1.817c0.32-0.661-0.286-1.183-0.896-1.264
			c-0.707-0.093-1.56,0.23-1.884,0.899c-0.072,0.148-0.058,0.137-0.205,0.303c0.042-0.062,0.099-0.104,0.171-0.126
			c-0.157,0.074-0.148,0.077,0.029,0.009c-0.169,0.041-0.165,0.046,0.012,0.013c-0.091,0.01-0.182,0.016-0.273,0.016
			c0.312-0.01-0.313-0.064-0.18-0.031c-0.726-0.179-1.542-0.061-2.049,0.549C76.047,57.365,76.151,58.164,76.836,58.333
			L76.836,58.333z"/>
	</g>
</g>
<line fill="none" stroke="#000000" stroke-miterlimit="10" x1="51.333" y1="20" x2="73.333" y2="42"/>
<line fill="none" stroke="#000000" stroke-miterlimit="10" x1="92" y1="62.089" x2="114" y2="84.089"/>
<g>
	<g>
		<path d="M50.787,20.553c11.364,0.105,22.72,1.888,34.039,0.134c9.562-1.482,14.836-6.943,21.92-12.841
			c-0.877-0.043-1.753-0.086-2.63-0.129c-2.731,6.938-9.02,11.372-15.029,15.325C82.054,27.669,74.85,32.587,66.786,35.2
			c-1.708,0.554-1.312,2.163,0.429,1.599c8.614-2.792,16.157-7.892,23.706-12.769c6.553-4.234,13.16-9.158,16.104-16.638
			c0.478-1.215-2.281-0.42-2.63-0.129c-2.867,2.387-5.454,5.091-8.404,7.378c-4.55,3.528-10.454,4.439-16.026,4.923
			c-9.322,0.81-18.756-0.698-28.085-0.785C50.708,18.769,48.824,20.535,50.787,20.553L50.787,20.553z"/>
	</g>
</g>
<g>
	<g>
		<path d="M62.66,62.92c5.91,8.391,14.985,4.689,21.183-1.297c1.247-1.204-1.604-1.3-2.351-0.579
			c-2.192,2.117-4.582,4.034-7.532,4.955c-3.745,1.169-6.639-1.442-8.618-4.252C64.725,60.873,61.925,61.877,62.66,62.92
			L62.66,62.92z"/>
	</g>
</g>
</svg>
